<?xml version="1.0" encoding="iso-8859-1"?>
<!-- Generator: Adobe Illustrator 18.1.1, SVG Export Plug-In . SVG Version: 6.00 Build 0)  -->
<svg version="1.1" id="Capa_1" xmlns="http://www.w3.org/2000/svg" xmlns:xlink="http://www.w3.org/1999/xlink" x="0px" y="0px"
	 viewBox="0 0 47.032 47.032" style="enable-background:new 0 0 47.032 47.032;" xml:space="preserve">
<g>
	<path d="M 29.395 0 H 17.636 c -3.117 0 -5.643 3.467 -5.643 6.584 v 34.804 c 0 3.116 2.526 5.644 5.643 5.644 h 11.759 c 3.116 0 5.644 -2.527 5.644 -5.644 V 6.584 C 35.037 3.467 32.511 0 29.395 0 Z M 34.05 14.188 v 11.665 l -2.729 0.351 v -4.806 L 34.05 14.188 Z M 32.618 10.773 c -1.016 3.9 -2.219 8.51 -2.219 8.51 H 16.631 l -2.222 -8.51 C 14.41 10.773 23.293 7.755 32.618 10.773 Z M 15.741 21.713 v 4.492 l -2.73 -0.349 V 14.502 L 15.741 21.713 Z M 13.011 37.938 V 27.579 l 2.73 0.343 v 8.196 L 13.011 37.938 Z M 14.568 40.882 l 2.218 -3.336 h 13.771 l 2.219 3.336 H 14.568 Z M 31.321 35.805 v -7.872 l 2.729 -0.355 v 10.048 L 31.321 35.805 Z"/>
	<g>
	</g>
	<g>
	</g>
	<g>
	</g>
	<g>
	</g>
	<g>
	</g>
	<g>
	</g>
	<g>
	</g>
	<g>
	</g>
	<g>
	</g>
	<g>
	</g>
	<g>
	</g>
	<g>
	</g>
	<g>
	</g>
	<g>
	</g>
	<g>
	</g>
</g>
<g>
</g>
<g>
</g>
<g>
</g>
<g>
</g>
<g>
</g>
<g>
</g>
<g>
</g>
<g>
</g>
<g>
</g>
<g>
</g>
<g>
</g>
<g>
</g>
<g>
</g>
<g>
</g>
<g>
</g>
</svg>
